<?xml version="1.0" standalone="no"?>
<!DOCTYPE svg PUBLIC "-//W3C//DTD SVG 20010904//EN"
 "http://www.w3.org/TR/2001/REC-SVG-20010904/DTD/svg10.dtd">
<svg version="1.0" xmlns="http://www.w3.org/2000/svg"
 width="97.000000pt" height="85.000000pt" viewBox="0 0 97.000000 85.000000"
 preserveAspectRatio="xMidYMid meet">

<g transform="translate(0.000000,85.000000) scale(0.100000,-0.100000)"
fill="#000000" stroke="none">
<path d="M385 664 c-67 -67 -78 -96 -39 -102 14 -2 30 8 47 27 14 17 30 31 36
31 7 0 11 -44 11 -129 0 -102 3 -131 15 -141 8 -7 22 -10 30 -6 12 4 15 29 15
135 0 83 4 132 11 137 6 3 25 -8 43 -25 35 -34 63 -40 73 -15 8 22 -123 154
-154 154 -14 0 -46 -24 -88 -66z"/>
<path d="M154 355 c-4 -15 -4 -59 0 -98 6 -62 11 -76 38 -104 l32 -33 251 0
251 0 32 33 c27 28 32 42 38 104 9 92 1 125 -29 121 -20 -3 -22 -9 -25 -83 -2
-65 -7 -84 -24 -102 -21 -23 -26 -23 -243 -23 -217 0 -222 0 -243 23 -17 18
-22 37 -24 102 -3 74 -5 80 -25 83 -17 3 -24 -3 -29 -23z"/>
</g>
</svg>
