<?xml version="1.0" standalone="no"?>
<!DOCTYPE svg PUBLIC "-//W3C//DTD SVG 20010904//EN"
 "http://www.w3.org/TR/2001/REC-SVG-20010904/DTD/svg10.dtd">
<svg version="1.0" xmlns="http://www.w3.org/2000/svg"
 width="226.000000pt" height="218.000000pt" viewBox="0 0 226.000000 218.000000"
 preserveAspectRatio="xMidYMid meet">

<g transform="translate(0.000000,218.000000) scale(0.100000,-0.100000)"
fill="#000000" stroke="none">
<path d="M555 1881 c-133 -17 -235 -153 -235 -315 0 -66 3 -77 27 -105 21 -24
36 -31 63 -31 54 0 80 33 86 106 12 140 43 175 163 182 101 6 125 25 118 95
-2 27 -9 53 -14 58 -13 13 -141 19 -208 10z"/>
<path d="M1492 1879 c-52 -16 -69 -85 -32 -131 17 -22 29 -26 98 -30 62 -4 86
-9 108 -27 47 -37 64 -75 64 -146 0 -53 4 -68 24 -89 29 -33 76 -34 116 -4 30
22 30 22 30 123 0 69 -4 107 -14 120 -7 11 -17 31 -21 43 -9 30 -69 90 -117
119 -43 25 -201 39 -256 22z"/>
<path d="M1056 1434 c-20 -20 -25 -41 -28 -142 -2 -60 -7 -85 -18 -92 -8 -5
-58 -10 -111 -10 -94 0 -96 0 -117 -30 -29 -39 -29 -90 1 -118 20 -19 35 -22
113 -22 49 0 94 -4 100 -8 23 -15 34 -54 34 -124 0 -81 12 -112 52 -136 26
-16 30 -15 62 2 46 25 66 76 66 169 0 43 5 78 12 85 8 8 46 12 105 12 86 0 96
2 118 25 31 30 33 82 5 118 -20 25 -26 26 -128 29 l-107 3 -5 95 c-4 78 -9
101 -28 128 -20 28 -29 32 -67 32 -26 0 -50 -6 -59 -16z"/>
<path d="M355 749 c-34 -30 -35 -33 -35 -104 0 -52 7 -90 23 -135 26 -68 55
-104 125 -151 46 -32 49 -33 165 -33 136 -1 147 5 147 80 0 35 -5 47 -31 68
-26 23 -40 26 -102 26 -109 1 -140 36 -150 170 -5 56 -9 68 -34 87 -38 31 -66
29 -108 -8z"/>
<path d="M1768 763 c-31 -20 -38 -39 -38 -111 0 -53 -13 -83 -54 -129 -17 -20
-29 -23 -95 -23 -67 -1 -80 -4 -105 -26 -38 -33 -46 -90 -18 -124 20 -24 24
-25 136 -24 103 0 120 3 146 22 16 12 33 22 38 22 14 0 75 78 99 128 19 38 23
64 23 139 l0 92 -33 25 c-39 30 -62 32 -99 9z"/>
</g>
</svg>
