<?xml version="1.0" standalone="no"?>
<!DOCTYPE svg PUBLIC "-//W3C//DTD SVG 20010904//EN"
 "http://www.w3.org/TR/2001/REC-SVG-20010904/DTD/svg10.dtd">
<svg version="1.0" xmlns="http://www.w3.org/2000/svg"
 width="309.000000pt" height="302.000000pt" viewBox="0 0 309.000000 302.000000"
 preserveAspectRatio="xMidYMid meet">

<g transform="translate(0.000000,302.000000) scale(0.100000,-0.100000)"
fill="#000000" stroke="none">
<path d="M720 2673 c-36 -8 -90 -27 -120 -41 -57 -28 -180 -141 -180 -167 0
-8 -6 -18 -13 -22 -7 -4 -23 -35 -37 -68 -21 -53 -24 -75 -25 -196 0 -128 1
-137 24 -171 26 -37 95 -78 133 -78 35 0 102 40 127 75 19 28 24 53 30 142 12
179 46 213 215 220 114 5 151 18 184 67 33 49 31 144 -4 185 -57 69 -182 89
-334 54z"/>
<path d="M2123 2672 c-74 -30 -103 -74 -103 -157 0 -54 2 -58 45 -99 l45 -43
115 -5 c105 -5 118 -8 150 -32 46 -35 65 -83 65 -165 1 -132 26 -185 107 -222
54 -24 64 -24 121 6 75 39 86 62 90 185 6 155 -17 245 -85 344 -39 56 -110
117 -173 149 -102 51 -297 71 -377 39z"/>
<path d="M1395 2019 c-98 -31 -158 -66 -237 -137 -38 -36 -118 -145 -118 -163
0 -6 -6 -23 -14 -37 -17 -31 -46 -161 -46 -205 0 -45 30 -185 49 -226 46 -102
167 -238 238 -267 17 -8 34 -18 38 -24 3 -5 14 -10 24 -10 11 0 38 -9 62 -20
68 -30 240 -28 333 4 37 13 73 29 79 35 6 6 16 11 23 11 13 0 105 69 138 103
64 66 120 176 142 280 18 87 18 134 -1 225 -36 171 -143 310 -305 394 -114 60
-285 75 -405 37z m281 -330 c51 -31 70 -53 100 -117 32 -69 32 -137 0 -200
-43 -85 -87 -119 -181 -141 -173 -39 -342 152 -280 317 24 61 58 105 103 134
55 34 70 37 148 34 54 -2 81 -9 110 -27z"/>
<path d="M442 997 c-18 -5 -47 -28 -65 -51 l-32 -40 0 -136 c1 -120 4 -142 25
-195 85 -207 254 -315 493 -315 152 0 217 51 217 170 0 62 -1 64 -45 107 l-45
43 -88 0 c-110 1 -157 11 -192 45 -34 33 -50 85 -50 166 -1 121 -27 175 -99
205 -38 16 -72 16 -119 1z"/>
<path d="M2545 998 c-41 -14 -82 -54 -89 -86 -4 -15 -10 -73 -14 -130 -9 -109
-20 -134 -75 -176 -21 -15 -47 -20 -134 -24 -121 -5 -157 -19 -192 -76 -32
-51 -29 -135 6 -177 42 -49 95 -69 188 -69 112 0 233 31 303 77 72 47 131 110
161 171 13 26 31 61 40 77 12 23 15 63 16 177 0 132 -2 149 -21 174 -46 63
-121 87 -189 62z"/>
</g>
</svg>
