<?xml version="1.0" standalone="no"?>
<!DOCTYPE svg PUBLIC "-//W3C//DTD SVG 20010904//EN"
 "http://www.w3.org/TR/2001/REC-SVG-20010904/DTD/svg10.dtd">
<svg version="1.0" xmlns="http://www.w3.org/2000/svg"
 width="81.000000pt" height="81.000000pt" viewBox="0 0 81.000000 81.000000"
 preserveAspectRatio="xMidYMid meet">

<g transform="translate(0.000000,81.000000) scale(0.100000,-0.100000)"
fill="#000000" stroke="none">
<path d="M346 709 c-48 -38 -29 -130 30 -142 40 -7 83 11 99 44 21 40 19 57
-14 90 -35 35 -77 38 -115 8z"/>
<path d="M342 497 c-21 -22 -22 -32 -22 -204 l0 -182 26 -20 c40 -31 87 -28
118 10 26 30 26 32 26 200 l0 170 -26 24 c-36 33 -92 34 -122 2z"/>
</g>
</svg>
